<svg width="13" height="13" viewBox="0 0 13 13" fill="none" xmlns="http://www.w3.org/2000/svg">
<g id="instagram 1" clip-path="url(#clip0_1_1240)">
<path id="Vector" d="M9.48198 0H3.51995C1.57956 0 0.000976562 1.57858 0.000976562 3.51898V9.4811C0.000976562 11.4214 1.57956 13 3.51995 13H9.48208C11.4224 13 13.001 11.4214 13.001 9.4811V3.51898C13.001 1.57858 11.4224 0 9.48198 0V0ZM12.2388 9.4811C12.2388 11.0012 11.0021 12.2379 9.48198 12.2379H3.51995C1.99979 12.2379 0.763091 11.0012 0.763091 9.4811V3.51898C0.763091 1.99881 1.99979 0.762114 3.51995 0.762114H9.48208C11.0021 0.762114 12.2388 1.99881 12.2388 3.51898V9.4811Z" fill="white"/>
<path id="Vector_2" d="M6.50087 2.94531C4.54084 2.94531 2.94629 4.53986 2.94629 6.49989C2.94629 8.45993 4.54084 10.0545 6.50087 10.0545C8.4609 10.0545 10.0555 8.45993 10.0555 6.49989C10.0555 4.53986 8.4609 2.94531 6.50087 2.94531ZM6.50087 9.29236C4.96117 9.29236 3.7084 8.03969 3.7084 6.49989C3.7084 4.96019 4.96117 3.70743 6.50087 3.70743C8.04067 3.70743 9.29334 4.96019 9.29334 6.49989C9.29334 8.03969 8.04067 9.29236 6.50087 9.29236Z" fill="white"/>
<path id="Vector_3" d="M10.1407 1.68311C9.56145 1.68311 9.09033 2.15432 9.09033 2.73344C9.09033 3.31266 9.56145 3.78388 10.1407 3.78388C10.7199 3.78388 11.1911 3.31266 11.1911 2.73344C11.1911 2.15422 10.7199 1.68311 10.1407 1.68311ZM10.1407 3.02166C9.98178 3.02166 9.85245 2.89233 9.85245 2.73344C9.85245 2.57445 9.98178 2.44522 10.1407 2.44522C10.2997 2.44522 10.429 2.57445 10.429 2.73344C10.429 2.89233 10.2997 3.02166 10.1407 3.02166Z" fill="white"/>
</g>
<defs>
<clipPath id="clip0_1_1240">
<rect width="13" height="13" fill="white" transform="translate(0.000976562)"/>
</clipPath>
</defs>
</svg>
