<svg width="13" height="13" viewBox="0 0 13 13" fill="none" xmlns="http://www.w3.org/2000/svg">
<g id="twitter 1" clip-path="url(#clip0_1_1247)">
<g id="Group">
<g id="Group_2">
<path id="Vector" d="M13.001 2.46919C12.5175 2.68125 12.0024 2.82181 11.4654 2.89006C12.0179 2.56019 12.4395 2.04181 12.6378 1.417C12.1227 1.72412 11.5539 1.94106 10.9478 2.06213C10.4587 1.54131 9.76154 1.21875 9.00104 1.21875C7.52554 1.21875 6.33766 2.41638 6.33766 3.88456C6.33766 4.09581 6.35554 4.29894 6.39941 4.49231C4.18373 4.38425 2.22316 3.32231 0.906102 1.70463C0.676164 2.10356 0.541289 2.56019 0.541289 3.05175C0.541289 3.97475 1.0166 4.79294 1.7251 5.26662C1.29691 5.2585 0.876852 5.13419 0.520977 4.93837C0.520977 4.9465 0.520977 4.95706 0.520977 4.96762C0.520977 6.26275 1.44479 7.3385 2.65623 7.58631C2.43929 7.64563 2.20285 7.67406 1.95748 7.67406C1.78685 7.67406 1.6146 7.66431 1.45291 7.62856C1.79823 8.684 2.7781 9.45994 3.94323 9.48512C3.03648 10.1944 1.88516 10.6218 0.638789 10.6218C0.420227 10.6218 0.210602 10.6121 0.000976562 10.5852C1.18154 11.3466 2.58066 11.7812 4.08948 11.7812C8.99373 11.7812 11.675 7.71875 11.675 4.19737C11.675 4.07956 11.6709 3.96581 11.6652 3.85287C12.1942 3.4775 12.6386 3.00869 13.001 2.46919Z" fill="white"/>
</g>
</g>
</g>
<defs>
<clipPath id="clip0_1_1247">
<rect width="13" height="13" fill="white" transform="translate(0.000976562)"/>
</clipPath>
</defs>
</svg>
